<svg t="1712025924662" class="icon" viewBox="0 0 1024 1024" version="1.1" xmlns="http://www.w3.org/2000/svg" p-id="980" width="200" height="200"><path d="M-292.39808159-292.39808159h1608.79616318v1608.79616318H-292.39808159V-292.39808159z" fill="#020202" p-id="981"></path><path d="M213.4928994 210.35071939h163.39336033v75.41232016h-76.98341015l0.19638624 37.80513875-0.01099761 11.87429823c0.03613507 3.12961127 0.0769834 6.26079367 0.12097392 9.39040496l-0.04241943 4.86566573c0.18853081 9.63863717 1.47054025 15.06203985 8.35191447 21.99211788 2.78554256 2.40219661 5.69677234 4.59700937 8.66613244 6.76668464v3.14218002l2.71327244 1.09976299c4.47446432 2.56087671 7.09818464 5.6873458 10.44460635 9.60407318 5.70776999 6.53416332 5.70776999 6.53416332 12.17594751 12.27335513 3.74862076 3.09661839 6.52002352 5.94186238 9.62292627 9.62292624 4.12568235 4.84838373 8.45874858 9.07304477 13.25685745 13.25685746 5.83817044 5.13746431 11.13745703 10.4980234 16.33619386 16.28120568 13.54908018 14.87193798 27.92926699 28.93633568 42.18533768 43.12484951 2.80125348 2.79182693 5.60093587 5.58365387 8.39904716 8.3770519 5.10918468 5.09661597 10.21994049 10.19008976 15.3338384 15.28199246 4.6975591 4.67556385 9.38726276 9.35741206 14.07225316 14.04711571l3.73133876 3.73133876c20.81694255 20.81694255 20.81694255 20.81694255 23.55063915 23.55378133 2.30636014 2.30321794 4.62214678 4.59543826 6.93793347 6.88608748 4.05498332 4.11154256 7.64492396 8.52630545 11.34169872 12.96149251a879.60301787 879.60301787 0 0 0 7.85545 7.85545004c1.74548099 1.7439099 3.49096197 3.48781981 5.23487189 5.23487188l2.71641464 2.71641461L535.56635005 599.98104016l2.84838618-1.47368241C541.85071007 596.83886017 541.85071007 596.83886017 546.56398006 595.26777017c1.08719428-2.07383881 2.12882695-4.17281505 3.14218001-6.28436002a130.32191575 130.32191575 0 0 1 16.79180995-15.90728628c3.16260419-2.56558997 5.33699275-4.9033719 7.85545003-8.05183626L577.98578013 560.70379009h3.14218v-3.14218001h3.14218002v-3.14218h3.14217999l3.14218001-6.28436001h3.14218002l1.17831749-2.7494075c2.25137197-4.05341221 4.76668707-6.772969 8.24822251-9.81931252h3.14218002v-3.14218001h3.14217999v-3.14218001h3.14218002l3.14217999-6.28436001h3.14218002v-3.14218h3.14218001l0.98193126-2.55302125c2.99763972-5.17674157 6.94893107-9.37783621 11.58678875-13.15787879h3.14218003v-3.14218c2.94579374-3.33856626 2.94579374-3.33856626 6.28436001-6.28436001h3.14218v-3.14218001h3.14218001v-3.14218001a412.40484144 412.40484144 0 0 1 7.85544999-6.28436002l1.57109003-3.14217999h3.14218001l3.14217999-6.28436003h3.14218002v-3.14217999h3.14218v-3.14218h3.14218001l1.17831749-2.94579377c2.28750706-3.89001886 4.12882453-4.83267286 8.24822252-6.48074625v-3.14218001h3.14218001l1.17831752-2.74940752c2.25137197-4.05341221 4.76668707-6.772969 8.24822249-9.8193125h3.14218l1.08562321-2.63471793c2.64885774-4.70070129 5.99056619-7.96228415 9.81302816-11.76903524l2.28907814-2.28593594a1451.65416997 1451.65416997 0 0 1 4.78554014-4.74940507c2.45090041-2.42104969 4.88766101-4.8546681 7.3244216-7.2914287 11.94499731-11.88529588 11.94499731-11.88529588 15.55064884-13.6889072l1.57109-114.68957025h-75.41232015v-72.27014012h161.82227032c0.88609475 58.66921398 0.88609475 58.66921398 1.07462558 83.33218484 0.13040046 17.00233601 0.2827962 34.00310095 0.58444549 51.00386586 0.21995261 12.38490249 0.36135071 24.76666281 0.41005448 37.15313639 0.02827963 6.55144531 0.0942654 13.09974845 0.25608765 19.65119376 1.01806631 43.04001063 1.01806631 43.04001063-7.09190026 53.68571649-4.39276765 4.55301883-9.14845709 7.97956612-14.58757068 11.17359211-4.11468471 2.58444307-7.18773676 5.98271074-10.49645232 9.51452107l-4.26393825 4.28436243-4.65513968 4.6834193c-8.65199264 8.70383862-17.31341183 17.39982179-25.97797321 26.09109167a12365.59222727 12365.59222727 0 0 0-15.68890476 15.76431709 8477.55138189 8477.55138189 0 0 1-15.21600668 15.27727919c-1.93244071 1.93872507-3.86488142 3.88059231-5.79260885 5.82717283-2.6865639 2.70698807-5.38098326 5.40454961-8.07854478 8.10211115l-2.41947862 2.45561369C711.88506782 565.41706012 711.88506782 565.41706012 708.38625039 565.41706012c-0.41476775 0.9269431-0.83110661 1.85388622-1.25687201 2.8122511-1.95443595 3.59779611-3.97014445 5.92458039-6.89394293 8.77453765l-2.95050701 2.87823689a219.23775449 219.23775449 0 0 1-8.73368934 7.62921307c-5.08090507 4.26393826-8.98977701 8.88608506-13.15787877 14.04083135-4.6504264 4.91751172-9.59464666 9.39983151-14.662983 13.87429581-10.40061582 9.3495566-20.22935487 19.2505658-30.09422903 29.15943048l-6.00627707 6.01099032c-5.22544535 5.23172972-10.44617743 10.46817268-15.66376734 15.70461568-5.3134264 5.32913728-10.63156605 10.65199022-15.94656352 15.97798533-8.57972251 8.59386233-17.15630283 17.18772463-25.72974099 25.78787131a5574.43942816 5574.43942816 0 0 1-10.86251627 10.86880066 383.26897735 383.26897735 0 0 0-7.01648794 7.22387181C546.56398006 728.81042043 546.56398006 728.81042043 543.42180006 728.81042043l-1.57108999 7.85545001h201.09952038v-105.26303021h86.40995017v191.67298039H213.4928994V210.35071939z" fill="#FAFAFA" p-id="982"></path><path d="M299.90284958 497.86018997c6.21680316 3.72976769 8.85623434 5.3605591 13.10760389 10.54515611 5.54594771 6.56244295 11.44381957 12.637848 17.5412199 18.68497341l3.27729373 3.27258047a8640.39800289 8640.39800289 0 0 0 10.26078881 10.21208502l6.91593821 6.89394292c4.22937429 4.2152345 8.46031967 8.42889787 12.69283614 12.64099017l2.76668948 2.75412077 7.00234815 6.96464199c3.37470133 3.39983876 6.55144531 6.90651166 9.70305185 10.51373432 4.556161 5.16103066 9.20658741 10.11781962 14.13981002 14.92535502 1.83503312 1.83031985 3.66849516 3.66378189 5.49881504 5.49881501l2.84210181 2.83581744a874.38699905 874.38699905 0 0 1 6.68341686 6.78710881c3.87587904 3.87430795 3.87587904 3.87430795 8.54201636 7.65906377 5.78789557 4.82324631 10.99291676 9.75018455 15.61349245 15.71090004 3.78789799 4.59229609 8.05969171 8.02198557 12.6661276 11.78317502 4.8546681 4.59386716 9.28042865 9.47210161 13.69204937 14.48387874 10.31263478 11.47838357 21.31969134 22.26705862 32.26233321 33.13900143l6.41947376 6.39904958c4.77297142 4.75726053 9.55222721 9.51137889 14.32991192 14.26392616a3815.91053225 3815.91053225 0 0 1 6.8358126 6.82952824 452.96095881 452.96095881 0 0 0 6.27336239 6.15867281c2.25765634 2.17595965 4.43047379 4.43990034 6.59700692 6.70698322v3.14218H299.90284958V497.86018997z" fill="#030303" p-id="983"></path><path d="M716.24170041 422.44786982c3.14217999 3.14217999 3.14217999 3.14217999 3.14218 7.85545001h-3.14218l-0.7541232 2.98192884c-3.0322037 10.61428407-3.0322037 10.61428407-7.9842794 13.5145162L703.67298038 447.58530987c-3.41869186 1.28986487-3.41869186 1.28986487-4.51688375 4.71327003L697.38862036 455.44075988c-2.08326534 0.56873457-4.17909942 1.09504973-6.28436 1.57109002l-1.57109001 4.71326999c-2.21052364 4.42104727-5.77061358 5.43282922-9.96699497 7.72033628-3.27100939 2.14610896-4.55458992 4.28907571-5.74390507 7.99056377l-4.71326999-1.57109001v-6.28436001h3.14218v-3.14218h3.14218001l1.17831749-2.94579377c2.28750706-3.89001886 4.12882453-4.83267286 8.24822252-6.48074625v-3.14218001h3.14218001l1.17831752-2.74940752c2.25137197-4.05341221 4.76668707-6.772969 8.24822249-9.8193125h3.14218l1.16574881-2.72427007c2.30950229-4.15710415 5.04477001-6.93636236 8.45717746-10.23722247l3.44854258-3.36213259L716.24170041 422.44786982z" fill="#E9E9E7" p-id="984"></path><path d="M742.95023045 284.19194954h1.57109l0.0487038 4.25136956c0.15396682 13.22386455 0.31421799 26.44615802 0.48389572 39.67002257 0.08798102 6.79810644 0.17124881 13.5962129 0.24823222 20.39274825 0.07541231 6.56087184 0.15710901 13.12174371 0.24509004 19.68104447 0.03142179 2.50431747 0.06127251 5.00706384 0.08798103 7.50981021 0.03770617 3.50510179 0.08483887 7.01020359 0.13511375 10.51687649 0.02356636 1.99528431 0.0471327 3.9905686 0.07384123 6.04712541 0.0487038 4.8546681 0.0487038 4.8546681 1.25687199 8.60957323L747.66350048 403.59478977c-3.24115867 4.41947618-3.24115867 4.41947618-7.85545002 7.85545003-5.20502118-0.29536492-5.20502118-0.29536492-9.42654003-1.57109 7.46267753-9.23015377 7.46267753-9.23015377 10.99763002-10.99763001l1.57109-114.68957025z" fill="#DADAD9" p-id="985"></path><path d="M634.54502023 504.14454998c1.57108999 4.71327001 1.57108999 4.71327001 1.57109003 7.85545002h-3.14218003l-1.57109 6.28436002h-4.71326999c-1.92301417 3.26001174-1.92301417 3.26001174-1.57109003 7.85545001-2.84838619 2.35663501-2.84838619 2.35663501-6.28436 4.71327-2.95207812 2.82324875-5.58365387 5.72819415-8.24822254 8.83738127-5.17831264 4.47132213-8.59386233 4.90651408-15.3181275 5.30242876a249.51108775 249.51108775 0 0 1 7.85545-9.42654001h3.14218002v-3.14218001h3.14217999v-3.14218001h3.14218002l3.14217999-6.28436001h3.14218002v-3.14218h3.14218001l0.98193126-2.55302125c3.07148095-5.30557093 7.15945714-8.92379122 11.58678875-13.15787879z" fill="#DEDDD9" p-id="986"></path><path d="M665.9668203 472.72274991c3.14217999 4.71327001 3.14217999 4.71327001 2.65199993 7.9544287-2.01570848 5.67791926-3.65121315 6.68498797-8.93635993 9.32756134v3.14218002h-3.14218002l-1.57109 3.14218h-6.28436001l-1.57109 6.28436001-9.42654001 1.57109c0-3.14217999 0-3.14217999 2.94579373-6.48074626C643.97156027 494.71800997 643.97156027 494.71800997 647.11374027 494.71800997v-3.14218001h3.14218001v-3.14218001a412.40484144 412.40484144 0 0 1 7.85544999-6.28436002l1.57109003-3.14217999h3.14218001l3.14217999-6.28436003z" fill="#EAEAE6" p-id="987"></path><path d="M449.15639988 513.57108999c10.00627222 8.17909455 10.00627222 8.17909455 14.04240245 13.25685747 3.8177487 4.74469182 8.14610166 8.39590499 12.82009442 12.27963945 3.02906151 2.78082932 5.34170603 5.66849274 7.70148319 9.02748316-4.51688377 0.29536492-4.51688377 0.29536492-9.42654001 0l-3.14218002-4.71327001c-3.22073452-1.87273929-3.22073452-1.87273929-6.28436001-3.14218v-3.14218001c-1.30871797-3.40455204-1.30871797-3.40455204-4.71327001-4.71327001-5.67163492-5.5962226-10.49488122-10.56715137-10.99763001-18.85308005z" fill="#E2E2E2" p-id="988"></path><path d="M783.79857053 491.57582996l3.14218001 4.71327001c-2.22623454 5.37784108-4.82010413 7.58050928-9.42654002 10.99763002l-1.57109 4.71327001-4.71327 1.57108999c-4.92222498 2.06912553-4.92222498 2.06912553-9.42654003 4.71327003l-1.57109 4.71327-6.28436001-1.57109 29.85071005-29.85071006z" fill="#1B1B1F" p-id="989"></path><path d="M691.10426036 447.58530987l1.57109001 3.14218001-1.57109001 3.14218001h3.14217999c-3.12175584 6.24351167-6.97563961 10.0706869-12.56872001 14.13981001-4.55301883 4.24665629-4.55301883 4.24665629-7.85545003 9.42654004l-4.71326999-1.57109001v-6.28436001h3.14218v-3.14218h3.14218001l1.17831749-2.94579377c2.28750706-3.89001886 4.12882453-4.83267286 8.24822252-6.48074625v-3.14218001h3.14218001l3.14218001-6.28436002z" fill="#E5E5E1" p-id="990"></path><path d="M581.12796013 683.24881035h3.14218002v3.14218l3.14217999 1.57109-26.70853005 26.70853005-1.57108999-3.14218-3.14218-1.57109002a732.22220684 732.22220684 0 0 1 5.30242874-3.92772501l2.98192882-2.20895253C566.9881501 702.10189037 566.9881501 702.10189037 570.13033011 702.10189037v-4.71327001h3.14218001l1.37470376-3.83031744C576.41469013 689.53317035 576.41469013 689.53317035 579.55687014 687.96208035l1.57108999-4.71327z" fill="#E0E0E5" p-id="991"></path><path d="M519.85545002 717.81279041l7.85545001 7.85545002 3.63393118 3.43754491C533.99526005 731.95260044 533.99526005 731.95260044 533.99526005 735.09478044h-20.42417006v-4.71327001l3.14218002-3.04477241c3.87116577-3.23958759 3.87116577-3.23958759 3.14218001-9.52394761z" fill="#0D0E0D" p-id="992"></path><path d="M816.7914606 458.58293988c1.51767294 4.09740273 1.6150805 6.11782448 0.49175118 10.40847129-2.39277007 4.32992404-3.90258757 4.98821076-8.3472012 6.87351876l-2.25922742 2.55302126C804.22274059 480.57819994 804.22274059 480.57819994 800.00122175 480.87356486L796.36729057 480.57819994a164.99901433 164.99901433 0 0 1 6.28436001-7.85545003h3.14218001l1.0809099-2.6519999c2.62529139-4.62528897 6.07226286-7.84602348 9.91672011-11.48781013z" fill="#1E1F21" p-id="993"></path><path d="M593.69668017 544.99289006l3.14218 1.57109c-1.27101181 6.00470599-2.28279378 10.06126038-6.48074626 14.63156121-5.67791926 3.33071082-10.64413478 4.48231978-17.08560379 5.79260883 2.16024877-3.14217999 2.16024877-3.14217999 4.71327001-6.28436001h3.14218v-3.14218001h3.14218002v-3.14218h3.14217999l3.14218001-6.28436001h3.14218002v-3.14218001z" fill="#DBDBD7" p-id="994"></path><path d="M483.72037994 548.13507007c8.97720828 6.92536474 15.98898298 13.99841193 21.99526004 23.56635003-6.81381734-0.78554501-10.65199022-5.12175341-15.71090003-9.42653999l-4.71326999-1.57109002-1.57109002-12.56872002z" fill="#DFE1E0" p-id="995"></path><path d="M522.99763002 588.98341015l2.18381511 2.06284117 2.92222739 2.65042885 2.87195255 2.6519999c3.27572266 2.65199994 3.27572266 2.65199994 9.30399499 2.06127011 1.57108999 4.71327001 1.57108999 4.71327001 1.57109001 7.85545001h-7.85545002v3.14217999h-3.14218002l1.57109001-6.28436001-6.28436001-3.14218001v-3.14217999h-3.14218001l-3.14218-6.28436002 3.14218-1.57109z" fill="#E2E4E1" p-id="996"></path><path d="M570.13033011 570.13033011l0.58915875 3.04477243L571.7014201 576.41469013l3.14218002 1.57109c-1.9638625 2.35663501-1.9638625 2.35663501-4.71327001 4.71327h-6.28436l-3.14218002 4.71327001-6.28436001-1.57109c4.83738612-6.0801183 9.42654002-11.04476273 15.71090003-15.71090003z" fill="#ECECE8" p-id="997"></path><path d="M747.66350048 397.31042976c-0.53574169 4.8248174-1.38570138 7.59464908-4.22308993 11.58678878C739.80805046 411.4502398 739.80805046 411.4502398 734.70200795 411.0574673L730.38151043 409.8791498c10.10996417-12.56872002 10.10996417-12.56872002 17.28199005-12.56872004z" fill="#E3E5E1" p-id="998"></path><path d="M835.64454064 447.58530987v3.14218001h-3.14218001l-3.14218001 6.28436002h-3.14218001l-1.57108999 4.71326999c-2.45561367 2.65199994-2.45561367 2.65199994-4.71327001 4.71327003l-3.14218001-1.57109002c2.84367291-9.66848788 8.52630545-17.28199003 18.85308004-17.28199003z" fill="#0F1011" p-id="999"></path><path d="M587.41232014 563.84597011l-3.14217999 9.42654001h-4.71327001c-2.1052606 0.48075354-4.20266575 0.99764217-6.28436002 1.57109l-1.57109002-7.85545002c5.51138374-2.52002835 9.65277699-3.48781981 15.71090004-3.14217999z" fill="#F0EFED" p-id="1000"></path><path d="M323.46919964 513.57108999l4.71326999 1.57109v6.28436003h3.14218l1.57109001-3.14218 3.14218001 6.28436-6.28436 3.14218001-10.99763004-10.99763002 4.71327003-3.14218002z" fill="#EDEDF0" p-id="1001"></path><path d="M648.68483027 494.71800997l6.28436001 1.57109-3.14218001 3.14218001-3.04477241 3.83031742c-2.52788383 3.14060892-5.03848563 5.97014202-7.9528576 8.7384026l-6.28436003-3.14217999 1.57109003-4.71327003c5.59779367-1.86645492 5.59779367-1.86645492 10.99763001-3.14218l1.57109-6.28436001z" fill="#F4F3F0" p-id="1002"></path><path d="M783.79857053 491.57582996l3.14218001 4.71327001c-1.80989569 3.87745012-3.21759233 6.35977234-6.28436 9.42654001h-6.28436002c0.74155447-6.67399034 4.66142403-9.74075802 9.42654001-14.13981002z" fill="#141517" p-id="1003"></path><path d="M548.13507007 727.23933042l-4.71327001 1.57109001c-1.89944781 3.14217999-1.89944781 3.14217999-3.14218 6.28436001-3.04477242-0.58915875-3.04477242-0.58915875-6.28436001-1.57109l-1.57109001-3.14218001c3.14217999-4.71327001 3.14217999-4.71327001 6.97249743-5.99056617C543.42180006 724.09715042 543.42180006 724.09715042 548.13507007 727.23933042z" fill="#EBECF0" p-id="1004"></path><path d="M716.24170041 422.44786982c3.14217999 3.14217999 3.14217999 3.14217999 3.14218 7.85545001h-3.14218l-1.57109001 6.28436003-9.42654001-1.57109001 4.61586242-5.40140744 2.59544069-3.03691696A78.02504283 78.02504283 0 0 1 716.24170041 422.44786982z" fill="#D9D9D5" p-id="1005"></path><path d="M433.44549985 497.86018997c11.7564665 9.66220352 11.7564665 9.66220352 15.71090003 15.71090002h-3.14218001v3.14218002h-3.14218l-1.57109-6.28436h-3.14218001c-4.71327001-9.03376752-4.71327001-9.03376752-4.71327001-12.56872004z" fill="#D3D4D4" p-id="1006"></path><path d="M722.52606041 552.84834009l1.57109001 3.14218001-7.85545001 9.42654002 1.57109 3.14218-10.99763002 1.57108999c1.79889804-5.39826525 3.5679454-6.81067517 7.85545001-10.40847126l3.43754493-2.90965871L720.95497042 554.41943008l1.57108999-1.57108999z" fill="#1F2021" p-id="1007"></path><path d="M603.12322017 673.82227031l4.71327003 1.57109002c-2.15239331 4.96621549-3.12646912 6.27336239-7.85545004 9.42654001l-3.14217999 3.14218001h-4.71327002c2.44304497-5.99685055 6.34091925-9.7281893 10.99763002-14.13981004z" fill="#07080A" p-id="1008"></path><path d="M728.81042043 409.8791498l4.71327001 4.71327002-3.14218001 7.85545-2.7494075-1.76747624L724.09715042 419.3056898c-3.34170844 1.40926773-3.34170844 1.40926773-6.28436001 3.14218002l4.61586242-5.40140741 2.5954407-3.036917A78.02504283 78.02504283 0 0 1 728.81042043 409.8791498z" fill="#D6D7D3" p-id="1009"></path><path d="M499.43127998 700.53080036c5.96228657 2.3424952 8.81381491 5.90258515 12.56872002 10.99763004l-7.85545002 1.57108998-4.71327-6.28435999h3.14218v-3.14218001h-3.14218v-3.14218002z" fill="#0F0E10" p-id="1010"></path><path d="M675.39336033 601.55213018c-2.7494075 10.60485751-2.7494075 10.60485751-6.28436001 14.13981001-4.12411126-0.58915875-4.12411126-0.58915875-7.85545002-1.57108999l4.61586243-5.40140744 2.59544068-3.03691697C672.04065424 601.55213018 672.04065424 601.55213018 675.39336033 601.55213018z" fill="#212123" p-id="1011"></path><path d="M702.10189037 573.27251012c0 5.31028421-1.37470374 9.16731018-3.14218001 14.13981002l-10.99763001 1.57109001c2.17124639-5.04319891 4.59386716-7.93400451 8.83738125-11.39040253l3.00706628-2.47918L702.10189037 573.27251012z" fill="#1C1D20" p-id="1012"></path><path d="M378.45734974 562.27488011c1.76747625 2.7494075 1.76747625 2.7494075 3.14218002 6.28436001-1.37470374 3.5349525-1.37470374 3.5349525-3.14218002 6.28436-7.65906378-4.32049751-7.65906378-4.32049751-9.42654002-7.85545002l9.42654002-4.71326999z" fill="#E5E6EA" p-id="1013"></path><path d="M746.09241046 529.28199003c0 7.40611828 0 7.40611828-1.57109001 10.99763003-5.04162782 3.06833878-8.20108982 4.71327001-14.13981002 4.71327l15.71090003-15.71090003z" fill="#1D1C1F" p-id="1014"></path><path d="M691.10426036 447.58530987l1.57109001 3.14218001-1.57109001 3.14218001h3.14217999c-1.76747625 3.5349525-3.11390038 5.47839084-6.28436 7.85545-4.22308994-0.49175119-4.22308994-0.49175119-7.85545002-1.57109l1.57109001-3.14217999h3.14218v-3.14218001h3.14218001l3.14218001-6.28436002z" fill="#D3D4CF" p-id="1015"></path><path d="M416.1635098 480.57819994c1.77376062 1.46582698 3.53966577 2.93950939 5.30242877 4.41947617l2.98192883 2.48546438C427.16113983 490.00473995 427.16113983 490.00473995 430.30331983 494.71800997l-9.42654-1.57109v-4.71327002l-6.28436001-3.14217999 1.57108998-4.71327002z" fill="#D5D6D5" p-id="1016"></path><path d="M299.90284958 362.7464497c9.23015377 7.26629125 9.23015377 7.26629125 10.99763004 12.56872003h-4.71327003v-3.14218l-4.71327 1.57108999-3.14218002-1.57108999 1.57109001-9.42654003z" fill="#D6D8D6" p-id="1017"></path><path d="M508.85782001 573.27251012c4.16024631 4.05027003 7.76746898 7.72347843 10.99763001 12.56872002l-3.14218001 1.57109-3.14218002-1.57109v-3.14218001l-7.85545001 1.57109002 3.14218003-1.57109002v-9.42654001z" fill="#E1E3E2" p-id="1018"></path><path d="M647.11374027 491.57582996l3.14218001 3.14218001c-0.98193124 3.83031742-0.98193124 3.83031742-3.14218001 7.85545001-4.90965626 1.27729617-4.90965626 1.27729617-9.42654001 1.57109 0-3.14217999 0-3.14217999 2.94579373-6.48074626C643.97156027 494.71800997 643.97156027 494.71800997 647.11374027 494.71800997v-3.14218001z" fill="#DCDCD7" p-id="1019"></path><path d="M383.17061974 447.58530987c6.49802825 5.31185531 12.2749262 10.47288596 17.28199004 17.28199003-4.57658517-2.11625824-8.31577938-4.51531266-12.17594753-7.75804242l-2.9222274-2.39905445C383.17061974 452.2985799 383.17061974 452.2985799 383.17061974 447.58530987z" fill="#E5E6E6" p-id="1020"></path><path d="M350.17772969 548.13507007a425.93821075 425.93821075 0 0 1 5.49881499 4.41947618l3.09347623 2.48546438C361.17535969 557.56161008 361.17535969 557.56161008 361.17535969 562.27488011h-3.14217999c-2.36920372-2.40533881-2.36920372-2.40533881-4.90965627-5.49881501l-2.56558997-3.09347624L348.60663967 551.27725009l1.57109002-3.14218002z" fill="#242329" p-id="1021"></path><path d="M326.61137964 529.28199003c3.73133875 0.49175119 3.73133875 0.49175119 7.85545001 1.57109l3.14218 4.71327002c-7.46267753 1.76747625-7.46267753 1.76747625-10.99763001 0v-6.28436002z" fill="#121015" p-id="1022"></path><path d="M665.9668203 472.72274991c3.14217999 4.71327001 3.14217999 4.71327001 2.55302127 8.15081495L667.5379103 483.72037994l-7.85545-1.57109001v-3.14217999h3.14218001l3.14217999-6.28436003z" fill="#DCDCD7" p-id="1023"></path><path d="M540.27962006 598.40995018c1.57108999 4.71327001 1.57108999 4.71327001 1.57109001 7.85545001h-7.85545002v3.14217999h-3.14218002c2.32049994-7.34798795 2.32049994-7.34798795 6.48074626-9.91829118L540.27962006 598.40995018z" fill="#DBDCD7" p-id="1024"></path><path d="M703.67298038 565.41706012h4.71327001c-2.3424952 5.96228657-5.90258515 8.81381491-10.99763003 12.56872001 0.93636963-5.24744061 2.64414447-8.64885046 6.28436002-12.56872001z" fill="#DDDEE3" p-id="1025"></path><path d="M581.12796013 692.67535037l6.28436001 1.57108998-1.57109 4.71327001-10.99763002 1.57109 6.28436001-7.85544999z" fill="#0D0F11" p-id="1026"></path><path d="M519.85545002 585.84123014l3.14218 1.57109v9.42654003l-4.71327 1.57109001-3.14218003-7.85545003 4.71327003-1.57109v-3.14218001z" fill="#F1F3F1" p-id="1027"></path><path d="M387.88388974 581.12796013l10.99763005 9.42654002-1.57109003 4.71327002a1111.35921748 1111.35921748 0 0 1-5.40140742-4.51688377l-3.03691697-2.54045251C386.31279974 585.84123014 386.31279974 585.84123014 384.74170975 582.69905013l3.14217999-1.57109z" fill="#D9D8DF" p-id="1028"></path><path d="M562.27488011 576.41469013c0.98193124 2.84838619 0.98193124 2.84838619 1.57109 6.28436l-3.14218002 4.71327001-6.28436001-1.57109 7.85545003-9.42654001z" fill="#D2D3CD" p-id="1029"></path><path d="M501.00236998 562.27488011c3.83031742 1.08090993 3.83031742 1.08090993 7.85545003 3.14218001 1.27729617 4.12411126 1.27729617 4.12411126 1.57109 7.85545-3.87745012-1.80989569-6.35977234-3.21759233-9.42654003-6.28436002v-4.71326999z" fill="#1B1D1C" p-id="1030"></path><path d="M337.60900965 535.56635005c1.8067535 1.49881986 3.60408046 3.00706626 5.40140744 4.51688376l3.03691697 2.54045254C348.60663967 544.99289006 348.60663967 544.99289006 350.17772969 548.13507007c-4.51688377-0.3927725-4.51688377-0.3927725-9.42654004-1.57109001-2.93479613-4.00156624-3.14217999-5.98428181-3.14218-10.99763001z" fill="#1F1F22" p-id="1031"></path><path d="M790.08293056 477.43601994l6.28436001 1.57109-9.42654003 10.99763001-1.57109001-4.71326999c2.25922743-4.22308994 2.25922743-4.22308994 4.71327003-7.85545002z" fill="#E6E6ED" p-id="1032"></path><path d="M461.72511989 664.3957303c4.53416574 0.62529382 6.00470599 1.24116111 9.03376752 4.81224868L472.72274991 672.25118032h-9.42654l-1.57109002-7.85545002z" fill="#111010" p-id="1033"></path><path d="M603.12322017 543.42180006c-2.55302126 9.03376752-2.55302126 9.03376752-7.85545 12.56872004-2.09426298-4.19009703-1.05420139-6.54673204 0-10.99763004 4.71327001-1.57108999 4.71327001-1.57108999 7.85545-1.57109z" fill="#F1F1EF" p-id="1034"></path><path d="M524.56872002 713.09952038l4.71327001 3.14218003c0.29536492 5.69520127 0.29536492 5.69520127 0 10.99763001-3.24115867-2.65199994-3.24115867-2.65199994-6.28436001-6.28436 0.3927725-4.32049751 0.3927725-4.32049751 1.57109-7.85545004z" fill="#E7E8EA" p-id="1035"></path><path d="M573.27251012 700.53080036c0 5.61821783-1.70934592 7.93871779-4.71327 12.56872002l-6.28436001-1.57108998 10.99763001-10.99763004z" fill="#111213" p-id="1036"></path><path d="M452.2985799 640.82938026v6.28436001l3.14217998 3.14218001h-4.71327c-3.43754493-4.71327001-3.43754493-4.71327001-6.28436002-9.42654002 3.14217999-1.57108999 3.14217999-1.57108999 7.85545004 0z" fill="#E6E6EB" p-id="1037"></path><path d="M375.31516973 573.27251012c4.16024631 4.05027003 7.76746898 7.72347843 10.99763001 12.56872002h-4.71326998c-3.64021553-3.91986956-5.34799036-7.32127942-6.28436003-12.56872002z" fill="#2C2930" p-id="1038"></path><path d="M709.95734038 568.55924012l1.57109002 3.14217998 3.14218 1.57109002c-4.71327001 3.14217999-4.71327001 3.14217999-8.15081493 2.55302125L703.67298038 574.84360012l1.57109001-4.71327001 4.71326999-1.57108999z" fill="#0D0E0F" p-id="1039"></path><path d="M731.95260044 400.45260978l4.71327 3.14217999-9.42654002 7.85545003 1.57109001-6.28436001-3.14218-1.57109002 6.28436001-3.14217999z" fill="#090A05" p-id="1040"></path><path d="M471.15165991 535.56635005c1.8067535 1.49881986 3.60408046 3.00706626 5.40140744 4.51688376l3.03691697 2.54045254C482.14928993 544.99289006 482.14928993 544.99289006 483.72037994 548.13507007c-3.04477242-0.49175119-3.04477242-0.49175119-6.28436-1.57109001l-1.57109001-4.71326999h-3.14218002l-1.57109-6.28436002z" fill="#C0C2C1" p-id="1041"></path><path d="M304.61611959 501.00236998l6.28436003 6.28436001-4.71327003 4.71327001-3.14218001-1.57108999 1.57109001-9.42654003z" fill="#232227" p-id="1042"></path><path d="M658.11137027 482.14928993c2.63157575 0.44933174 5.25372497 0.97093362 7.85545003 1.57109001v3.14218001c-3.14217999 1.57108999-3.14217999 1.57108999-7.85545003 3.14218-0.88452368-3.04477242-0.88452368-3.04477242-1.57108999-6.28436001l1.57108999-1.57109001z" fill="#F3F3EF" p-id="1043"></path><path d="M358.0331797 424.01895984c4.53416574 0.62529382 6.00470599 1.24116111 9.03376752 4.81224866L369.03080972 431.87440985l-3.14217999 3.14218c-3.98428427-1.99214213-4.47760652-3.87745012-6.28436003-7.85545002l-1.57109-3.14217999z" fill="#CED1D0" p-id="1044"></path><path d="M552.84834009 585.84123014l1.27729616 3.04477243c1.68735066 3.75961838 1.68735066 3.75961838 6.57815384 4.8106776l-7.85545 1.57109v-3.14218002l-4.71327002-1.57109 4.71327002-4.71327001z" fill="#E0DFDA" p-id="1045"></path><path d="M603.12322017 535.56635005l3.14218002 4.71327001c-2.84838619 2.45561367-2.84838619 2.45561367-6.28436003 4.71327l-4.71326999-1.57109 7.85545-7.85545001z" fill="#D0CECA" p-id="1046"></path><path d="M603.12322017 665.9668203l3.14218002 3.14218002-7.85545001 6.28436001v-3.14218001l-3.14218001-1.57109001 7.85545-4.71327001z" fill="#DEDFE4" p-id="1047"></path><path d="M636.11611026 639.25829025l-9.42654002 7.85545002-1.57109003-6.28436001c5.69520127-3.33856626 5.69520127-3.33856626 10.99763005-1.57109001z" fill="#E3E2E7" p-id="1048"></path><path d="M676.96445033 588.98341015l6.28436002 1.57109-4.71327001 7.85545003c-1.67006868-2.94579374-1.67006868-2.94579374-3.14218001-6.28436003l1.57109-3.14218z" fill="#E2E3E7" p-id="1049"></path><path d="M502.57345998 571.7014201c3.14217999 0.3927725 3.14217999 0.3927725 6.28436003 1.57109002l1.57109 4.71327001-6.28436003 3.14218 1.57109-6.28436001-4.71327-1.57109 1.57109-1.57109002z" fill="#F0F2F1" p-id="1050"></path><path d="M479.00710994 548.13507007h4.71327c1.76747625 7.46267753 1.76747625 7.46267753 0 10.99763003h-3.14218l-1.57109-10.99763003z" fill="#F1F3F3" p-id="1051"></path><path d="M794.79620057 480.57819994l3.14218 6.28436001c-4.56558753 1.97486014-7.53494766 3.14217999-12.56872004 3.14218l9.42654004-9.42654001z" fill="#28292E" p-id="1052"></path></svg>